<svg id="41eaa9d5-fafc-43d5-8ab5-da920c1ab2dd" data-name="Calque 1" xmlns="http://www.w3.org/2000/svg" viewBox="0 0 203.26 56.6">
    <defs>
        <style>
            .e9096670-bb05-4562-96ac-88727b107ad3 {
                fill: #edd524;
            }
        </style>
    </defs>
    <title>20pts</title>
    <path class="e9096670-bb05-4562-96ac-88727b107ad3" d="M209.87,175H175.62v-7.21q3.93-2.84,7.87-6t6.31-5.51a30.17,30.17,0,0,0,5-6,9.91,9.91,0,0,0,1.49-5,5.72,5.72,0,0,0-1.92-4.61,8.32,8.32,0,0,0-5.52-1.63,16.16,16.16,0,0,0-5.67,1.11,26.13,26.13,0,0,0-5.52,2.84h-.94v-9.7a35.81,35.81,0,0,1,6.14-1.82,37.15,37.15,0,0,1,8.13-.91q8.2,0,12.51,3.44t4.31,9.74a15.94,15.94,0,0,1-2.07,7.85,32.14,32.14,0,0,1-6.31,7.68q-2.67,2.46-5.36,4.53t-3.84,2.89h19.6Z"
        transform="translate(-175.62 -130.47)" />
    <path class="e9096670-bb05-4562-96ac-88727b107ad3" d="M252.23,153.16a44.43,44.43,0,0,1-1,9.86,18.53,18.53,0,0,1-3.11,7.14,13.56,13.56,0,0,1-5.57,4.29,24.71,24.71,0,0,1-16.73,0,13.29,13.29,0,0,1-5.6-4.34A18.46,18.46,0,0,1,217.1,163a44.48,44.48,0,0,1-1-9.78,43.14,43.14,0,0,1,1-9.88,19.05,19.05,0,0,1,3.16-7.09,13.28,13.28,0,0,1,5.63-4.31,21.48,21.48,0,0,1,8.26-1.44,21.07,21.07,0,0,1,8.41,1.48,13.5,13.5,0,0,1,5.57,4.41,18.74,18.74,0,0,1,3.11,7.08A43.68,43.68,0,0,1,252.23,153.16Zm-11.34,0q0-7.92-1.55-11.28a5.64,5.64,0,0,0-10.31,0q-1.55,3.36-1.55,11.33,0,7.77,1.58,11.2a5.55,5.55,0,0,0,10.25,0Q240.89,161,240.89,153.16Z"
        transform="translate(-175.62 -130.47)" />
    <path class="e9096670-bb05-4562-96ac-88727b107ad3" d="M315.34,158.1a21.1,21.1,0,0,1-1.24,7.41,16.32,16.32,0,0,1-3.26,5.51,14.27,14.27,0,0,1-4.77,3.46,14,14,0,0,1-5.71,1.17,16.46,16.46,0,0,1-4.77-.6,22.93,22.93,0,0,1-4-1.68v13.71H281v-45h10.58v3.43a25.62,25.62,0,0,1,5-3.13,13.47,13.47,0,0,1,5.84-1.2,11.29,11.29,0,0,1,9.55,4.51Q315.34,150.21,315.34,158.1Zm-10.87.22q0-4.8-1.64-7t-5.17-2.16a11.09,11.09,0,0,0-3.07.45,12.87,12.87,0,0,0-3,1.3v16.53a8.4,8.4,0,0,0,2.25.53q1.2.12,2.37.12,4.18,0,6.23-2.44T304.47,158.32Z"
        transform="translate(-175.62 -130.47)" />
    <path class="e9096670-bb05-4562-96ac-88727b107ad3" d="M344,174.71a30.05,30.05,0,0,1-3.6.69,37,37,0,0,1-4.66.25q-6.15,0-9.16-2.49t-3-8.53V149.25h-4.34V142.1h4.34v-9.4h10.58v9.4H344v7.15h-9.84v11.68q0,1.73,0,3a6.21,6.21,0,0,0,.47,2.32,3.24,3.24,0,0,0,1.45,1.63,6.12,6.12,0,0,0,3,.6,12,12,0,0,0,4-1H344Z"
        transform="translate(-175.62 -130.47)" />
    <path class="e9096670-bb05-4562-96ac-88727b107ad3" d="M378.88,164.57a9.54,9.54,0,0,1-4.57,8.22q-4.57,3.12-12.51,3.12a35.72,35.72,0,0,1-8-.82,30.33,30.33,0,0,1-5.74-1.82V164.6h1q.79.56,1.83,1.22a18.56,18.56,0,0,0,2.94,1.42,24.22,24.22,0,0,0,3.72,1.16,19.64,19.64,0,0,0,4.45.48,11.58,11.58,0,0,0,4.6-.69,2.19,2.19,0,0,0,1.49-2,1.89,1.89,0,0,0-.88-1.74,11.48,11.48,0,0,0-3.34-1q-1.17-.26-3.18-.57a34.16,34.16,0,0,1-3.65-.75,12.92,12.92,0,0,1-6.65-3.65,9,9,0,0,1-2.17-6.17q0-4.75,4.5-7.9T365,141.19a32.73,32.73,0,0,1,7.08.75,28.64,28.64,0,0,1,5.29,1.6v8.32h-.91a21.49,21.49,0,0,0-5.35-2.62,19,19,0,0,0-6.08-1,11.51,11.51,0,0,0-4.29.7q-1.74.7-1.74,2a2.13,2.13,0,0,0,.79,1.79,10.76,10.76,0,0,0,3.72,1.23q1.61.32,3.47.63t3.74.78a11.74,11.74,0,0,1,6.15,3.41A8.63,8.63,0,0,1,378.88,164.57Z"
        transform="translate(-175.62 -130.47)" />
</svg>